# xmcd CD database file generated by Grip 3.0.7
# 
# Track frame offsets:
#       150
#       11606
#       23081
#       44618
#       55953
#       71554
#       95046
#       108048
#       121656
#       132189
#       146393
#       171718
#       186923
#       195198
# 
# Disc length: 2818 seconds
# 
# Revision: 1
# Processed by: cddbd v1.5.1PL0 Copyright (c) Steve Scherf et al.
# Submitted via: Grip 3.0.7
# 
DISCID=bf0b000e
DTITLE=Professor Washboard - Pool and Dunn - 110% Live
DYEAR=2005
DGENRE=Blues
TTITLE0=Rock Me Baby
TTITLE1=Freight Train
TTITLE2=Can't judge a Book
TTITLE3=Dimples
TTITLE4=Honky Tonk
TTITLE5=Schoolboy's Boogie
TTITLE6=Statesboro Blues
TTITLE7=Caledonia
TTITLE8=Deep in My Heart
TTITLE9=Can't be satisfied
TTITLE10=Limbo
TTITLE11=Can't sit down
TTITLE12=Custard Pie
TTITLE13=I wish You would
EXTD=
EXTT0=
EXTT1=
EXTT2=
EXTT3=
EXTT4=
EXTT5=
EXTT6=
EXTT7=
EXTT8=
EXTT9=
EXTT10=
EXTT11=
EXTT12=
EXTT13=
PLAYORDER=
